<svg width="19" height="14" viewBox="0 0 19 14" fill="none" xmlns="http://www.w3.org/2000/svg">
<path id="Vector" d="M11.4845 7.94299L12.733 6.32108C12.8133 6.22055 12.7776 6.09321 12.6617 6.01948L11.3418 5.24204C11.3686 5.09459 11.3864 4.94044 11.3864 4.78629C11.3864 4.63215 11.3686 4.478 11.3418 4.32385L12.6617 3.5464C12.7776 3.47268 12.8133 3.34534 12.733 3.24481L11.4845 1.6229C11.4042 1.52237 11.2437 1.48215 11.101 1.52237L9.54926 1.99151C9.22821 1.80386 8.8804 1.64971 8.49691 1.52907L8.26504 0.289179C8.25008 0.234974 8.21103 0.186205 8.1543 0.150885C8.09758 0.115565 8.02656 0.095793 7.95291 0.0948181H5.45582C5.30421 0.0948181 5.17043 0.181945 5.14368 0.295881L4.91181 1.53577C4.53724 1.65641 4.18052 1.81056 3.85946 1.99822L2.3077 1.52907C2.16501 1.48886 2.00448 1.52907 1.92422 1.6296L0.675673 3.25151C0.595409 3.35204 0.631082 3.47938 0.747018 3.55311L2.06691 4.33055C2.04015 4.478 2.02232 4.63215 2.02232 4.78629C2.02232 4.94044 2.04015 5.09459 2.06691 5.24874L0.747018 6.02619C0.631082 6.09991 0.595409 6.22725 0.675673 6.32778L1.92422 7.94969C2.00448 8.05022 2.16501 8.09043 2.3077 8.05022L3.85946 7.58107C4.18052 7.76873 4.52833 7.92288 4.91181 8.04352L5.14368 9.28341C5.17043 9.39064 5.30421 9.47777 5.45582 9.47777H7.95291C8.10452 9.47777 8.23829 9.39064 8.26504 9.27671L8.49691 8.03682C8.87148 7.91618 9.22821 7.76203 9.54926 7.57437L11.101 8.04352C11.2437 8.08373 11.4042 8.04352 11.4845 7.94299ZM6.70436 6.12672C5.72336 6.12672 4.92073 5.52353 4.92073 4.78629C4.92073 4.04906 5.72336 3.44587 6.70436 3.44587C7.68536 3.44587 8.488 4.04906 8.488 4.78629C8.488 5.52353 7.68536 6.12672 6.70436 6.12672ZM18.3961 11.2672L17.5399 10.7713C17.5578 10.6774 17.5756 10.5769 17.5756 10.4764C17.5756 10.3759 17.5667 10.2753 17.5399 10.1815L18.3872 9.68554C18.4585 9.63862 18.4853 9.5582 18.4318 9.49118L17.6291 8.45235C17.5845 8.38533 17.4775 8.36522 17.3794 8.38533L16.3895 8.68692C16.1844 8.56628 15.9614 8.46575 15.7117 8.39203L15.5601 7.60118C15.5566 7.56536 15.5355 7.5318 15.5009 7.50703C15.4662 7.48226 15.4206 7.46804 15.3728 7.46714H13.7765C13.6784 7.46714 13.5892 7.52075 13.5803 7.59448L13.4287 8.38533C13.1879 8.46575 12.956 8.55958 12.7509 8.68022L11.761 8.37862C11.7155 8.36578 11.6655 8.36546 11.6198 8.37774C11.574 8.39001 11.5356 8.41407 11.5113 8.44565L10.7086 9.48447C10.664 9.55149 10.673 9.63192 10.7532 9.67883L11.6004 10.1748C11.5637 10.3704 11.5637 10.569 11.6004 10.7646L10.7532 11.2605C10.6819 11.3074 10.6551 11.3879 10.7086 11.4549L11.5113 12.4937C11.5558 12.5607 11.6629 12.5808 11.761 12.5607L12.7509 12.2591C12.956 12.3798 13.179 12.4803 13.4287 12.554L13.5803 13.3449C13.5981 13.4186 13.6784 13.4722 13.7765 13.4722H15.3728C15.4709 13.4722 15.5601 13.4186 15.569 13.3449L15.7206 12.554C15.9614 12.4736 16.1933 12.3798 16.3895 12.2591L17.3883 12.5607C17.4775 12.5875 17.5845 12.5607 17.638 12.4937L18.4407 11.4549C18.4942 11.3946 18.4674 11.3141 18.3961 11.2672ZM14.5702 11.3745C14.2508 11.3744 13.9445 11.2789 13.7187 11.1091C13.4929 10.9393 13.3661 10.7091 13.3662 10.469C13.3664 10.229 13.4934 9.99877 13.7193 9.82909C13.9453 9.65941 14.2517 9.56414 14.5711 9.56423C14.8905 9.56432 15.1968 9.65976 15.4226 9.82957C15.6484 9.99937 15.7752 10.2296 15.775 10.4697C15.7749 10.7097 15.6479 10.9399 15.422 11.1096C15.196 11.2793 14.8896 11.3746 14.5702 11.3745Z" fill="url(#paint0_linear_1_30)"/>
<defs>
<linearGradient id="paint0_linear_1_30" x1="9.55066" y1="0.0948181" x2="9.55066" y2="13.4722" gradientUnits="userSpaceOnUse">
<stop stop-color="white"/>
<stop offset="1" stop-color="white"/>
</linearGradient>
</defs>
</svg>
