<svg width="60" height="60" viewBox="0 0 60 60" fill="none" xmlns="http://www.w3.org/2000/svg">
<g id="twitter-ic">
<g id="Group">
<path id="Vector" d="M58.6883 12.2448C56.6171 13.1626 54.392 13.7827 52.0528 14.063C54.4664 12.6188 56.2721 10.3458 57.133 7.66808C54.8654 9.01502 52.3836 9.96311 49.7954 10.4711C48.055 8.61285 45.7498 7.38115 43.2376 6.96725C40.7254 6.55336 38.1469 6.98044 35.9023 8.18219C33.6577 9.38394 31.8726 11.2931 30.8243 13.6133C29.7759 15.9335 29.5229 18.5349 30.1045 21.0136C25.5097 20.7829 21.0147 19.5887 16.9114 17.5083C12.808 15.428 9.18784 12.5081 6.28594 8.93815C5.29371 10.6498 4.72317 12.6342 4.72317 14.7477C4.72207 16.6503 5.1906 18.5237 6.0872 20.2018C6.98379 21.8799 8.28074 23.3108 9.86295 24.3674C8.028 24.309 6.23354 23.8132 4.62891 22.9212V23.07C4.62873 25.7385 5.55177 28.3249 7.24142 30.3903C8.93108 32.4556 11.2833 33.8728 13.8989 34.4014C12.1966 34.8621 10.412 34.9299 8.67971 34.5998C9.41768 36.8959 10.8552 38.9037 12.791 40.3422C14.7267 41.7807 17.0639 42.5778 19.4752 42.622C15.3818 45.8354 10.3265 47.5785 5.12255 47.5708C4.20072 47.5711 3.27966 47.5172 2.36414 47.4096C7.64649 50.8059 13.7955 52.6084 20.0755 52.6014C41.3342 52.6014 52.9557 34.9942 52.9557 19.7237C52.9557 19.2276 52.9433 18.7265 52.921 18.2304C55.1815 16.5957 57.1328 14.5713 58.6834 12.2522L58.6883 12.2448Z" fill="#B6B6B6"/>
</g>
</g>
</svg>
