<svg width="19" height="19" viewBox="0 0 19 19" fill="none" xmlns="http://www.w3.org/2000/svg">
<g id="mdi:about-circle-outline">
<path id="Vector" d="M8.60074 7.19696H10.05L10.05 5.74774H8.60074M9.32535 15.1677C6.12982 15.1677 3.52847 12.5663 3.52847 9.37079C3.52847 6.17526 6.12982 3.57391 9.32535 3.57391C12.5209 3.57391 15.1222 6.17526 15.1222 9.37079C15.1222 12.5663 12.5209 15.1677 9.32535 15.1677ZM9.32535 2.12469C8.37378 2.12469 7.43153 2.31212 6.55239 2.67627C5.67325 3.04042 4.87445 3.57416 4.20159 4.24703C2.84268 5.60593 2.07925 7.44901 2.07925 9.37079C2.07925 11.2926 2.84268 13.1356 4.20159 14.4946C4.87445 15.1674 5.67325 15.7012 6.55239 16.0653C7.43153 16.4295 8.37378 16.6169 9.32535 16.6169C11.2471 16.6169 13.0902 15.8535 14.4491 14.4946C15.808 13.1356 16.5714 11.2926 16.5714 9.37079C16.5714 8.41922 16.384 7.47697 16.0199 6.59783C15.6557 5.71869 15.122 4.91989 14.4491 4.24703C13.7763 3.57416 12.9774 3.04042 12.0983 2.67627C11.2192 2.31212 10.2769 2.12469 9.32535 2.12469ZM8.60074 12.9938H10.05L10.05 8.64618H8.60074L8.60074 12.9938Z" fill="white"/>
</g>
</svg>
