<svg width="61" height="60" viewBox="0 0 61 60" fill="none" xmlns="http://www.w3.org/2000/svg">
<g id="facebook-ic">
<g id="Group">
<path id="Vector" d="M5.69977 29.9139C5.70117 35.8574 7.80944 41.6055 11.6456 46.125C15.4818 50.6446 20.7944 53.6393 26.6285 54.5707V37.127H20.3352V29.9139H26.6359V24.4229C26.4968 23.1378 26.6406 21.8376 27.0572 20.6146C27.4737 19.3917 28.1528 18.2761 29.0462 17.3469C29.9395 16.4178 31.0252 15.698 32.2262 15.2386C33.4272 14.7793 34.714 14.5916 35.9952 14.689C37.8556 14.7189 39.7161 14.8862 41.5517 15.1882V21.3255H38.4162C37.8833 21.2553 37.3416 21.3065 36.8309 21.4753C36.3203 21.644 35.8539 21.9261 35.4662 22.3006C35.0785 22.6751 34.7795 23.1325 34.5911 23.639C34.4027 24.1454 34.3298 24.688 34.3778 25.2266V29.9139H41.2515L40.1526 37.1295H34.3778V54.5707C39.0602 53.8262 43.4326 51.7472 46.9771 48.58C50.5217 45.4128 53.0901 41.29 54.3782 36.6997C55.6663 32.1094 55.6202 27.2439 54.2453 22.6792C52.8705 18.1144 50.2244 14.0416 46.6205 10.943C43.0165 7.84441 38.6056 5.84974 33.9099 5.19515C29.2142 4.54057 24.4305 5.25349 20.125 7.24951C15.8195 9.24553 12.1727 12.4411 9.61613 16.4578C7.05961 20.4745 5.70052 25.1441 5.69977 29.9139Z" fill="#B6B6B6"/>
</g>
</g>
</svg>
