<svg width="20" height="16" viewBox="0 0 20 16" fill="none" xmlns="http://www.w3.org/2000/svg">
<path id="Vector" d="M18.578 13.879L18.578 6.65945C18.578 6.52759 18.5377 6.39754 18.4604 6.2796C18.383 6.16166 18.2706 6.05907 18.1321 5.97996L10.3286 1.52082C10.1357 1.41056 9.90098 1.35095 9.65977 1.35095C9.41857 1.35095 9.18387 1.41056 8.9909 1.52082L1.18741 5.97996C1.04896 6.05907 0.936588 6.16166 0.859192 6.2796C0.781795 6.39754 0.741501 6.52759 0.741501 6.65945L0.741501 13.879C0.741501 14.1043 0.858951 14.3203 1.06801 14.4796C1.27708 14.6389 1.56063 14.7284 1.85628 14.7284H6.31542C6.61108 14.7284 6.89463 14.6389 7.10369 14.4796C7.31275 14.3203 7.4302 14.1043 7.4302 13.879L7.4302 11.3309C7.4302 11.1057 7.54765 10.8896 7.75672 10.7303C7.96578 10.571 8.24933 10.4816 8.54499 10.4816H10.7746C11.0702 10.4816 11.3538 10.571 11.5628 10.7303C11.7719 10.8896 11.8893 11.1057 11.8893 11.3309L11.8893 13.879C11.8893 14.1043 12.0068 14.3203 12.2159 14.4796C12.4249 14.6389 12.7085 14.7284 13.0041 14.7284H17.4633C17.7589 14.7284 18.0425 14.6389 18.2515 14.4796C18.4606 14.3203 18.578 14.1043 18.578 13.879Z" stroke="url(#paint0_linear_1_24)" stroke-width="1.33774" stroke-linecap="round" stroke-linejoin="round"/>
<defs>
<linearGradient id="paint0_linear_1_24" x1="2.52518" y1="6.70191" x2="18.1217" y2="26.6308" gradientUnits="userSpaceOnUse">
<stop stop-color="white"/>
<stop offset="1" stop-color="#61FF00"/>
</linearGradient>
</defs>
</svg>
