<svg width="60" height="60" viewBox="0 0 60 60" fill="none" xmlns="http://www.w3.org/2000/svg">
<g id="instagram-ic">
<g id="Group">
<path id="Vector" fill-rule="evenodd" clip-rule="evenodd" d="M19.9778 5.10782C22.623 4.98605 23.4664 4.95898 30.2046 4.95898C36.9427 4.95898 37.7861 4.9883 40.4291 5.10782C43.072 5.22734 44.8761 5.64904 46.4547 6.26017C48.1076 6.88482 49.6073 7.86127 50.8475 9.12412C52.1104 10.3622 53.0846 11.8595 53.707 13.5148C54.3204 15.0933 54.7398 16.8974 54.8616 19.5358C54.9834 22.1855 55.0104 23.0289 55.0104 29.7649C55.0104 36.503 54.9811 37.3464 54.8616 39.9916C54.7421 42.6301 54.3204 44.4341 53.707 46.0127C53.0846 47.6681 52.1088 49.168 50.8475 50.4079C49.6073 51.6707 48.1076 52.6449 46.4547 53.2673C44.8761 53.8807 43.072 54.3001 40.4336 54.4219C37.7861 54.5437 36.9427 54.5707 30.2046 54.5707C23.4664 54.5707 22.623 54.5414 19.9778 54.4219C17.3393 54.3024 15.5353 53.8807 13.9567 53.2673C12.3013 52.6448 10.8014 51.669 9.56156 50.4079C8.29957 49.1691 7.32297 47.6699 6.69986 46.015C6.08874 44.4364 5.66929 42.6323 5.54752 39.9939C5.42574 37.3442 5.39868 36.5008 5.39868 29.7649C5.39868 23.0267 5.428 22.1833 5.54752 19.5403C5.66704 16.8974 6.08874 15.0933 6.69986 13.5148C7.32389 11.8597 8.30124 10.3606 9.56381 9.12186C10.8019 7.86015 12.3003 6.88357 13.9545 6.26017C15.533 5.64904 17.3371 5.22959 19.9755 5.10782H19.9778ZM40.2284 9.57288C37.6125 9.45336 36.8277 9.42855 30.2046 9.42855C23.5814 9.42855 22.7966 9.45336 20.1807 9.57288C17.761 9.68338 16.4486 10.087 15.5736 10.4276C14.4167 10.8786 13.5891 11.413 12.7209 12.2812C11.8979 13.0819 11.2645 14.0566 10.8672 15.1339C10.5267 16.0089 10.1231 17.3213 10.0126 19.741C9.89305 22.3569 9.86825 23.1417 9.86825 29.7649C9.86825 36.388 9.89305 37.1728 10.0126 39.7887C10.1231 42.2084 10.5267 43.5208 10.8672 44.3958C11.2641 45.4715 11.8978 46.4479 12.7209 47.2485C13.5215 48.0716 14.4979 48.7053 15.5736 49.1022C16.4486 49.4427 17.761 49.8463 20.1807 49.9568C22.7966 50.0764 23.5791 50.1012 30.2046 50.1012C36.83 50.1012 37.6125 50.0764 40.2284 49.9568C42.6481 49.8463 43.9605 49.4427 44.8355 49.1022C45.9924 48.6511 46.82 48.1167 47.6882 47.2485C48.5113 46.4479 49.145 45.4715 49.5419 44.3958C49.8824 43.5208 50.286 42.2084 50.3965 39.7887C50.5161 37.1728 50.5409 36.388 50.5409 29.7649C50.5409 23.1417 50.5161 22.3569 50.3965 19.741C50.286 17.3213 49.8824 16.0089 49.5419 15.1339C49.0908 13.977 48.5564 13.1494 47.6882 12.2812C46.8875 11.4583 45.9128 10.8249 44.8355 10.4276C43.9605 10.087 42.6481 9.68338 40.2284 9.57288ZM27.0362 37.4118C28.8056 38.1484 30.7759 38.2478 32.6106 37.6931C34.4452 37.1384 36.0303 35.9639 37.0952 34.3703C38.1601 32.7767 38.6387 30.8628 38.4492 28.9555C38.2598 27.0483 37.4141 25.2659 36.0565 23.9129C35.1911 23.048 34.1447 22.3858 32.9926 21.9739C31.8405 21.562 30.6114 21.4106 29.3938 21.5307C28.1762 21.6508 27.0004 22.0394 25.951 22.6684C24.9016 23.2975 24.0048 24.1514 23.325 25.1687C22.6452 26.186 22.1994 27.3413 22.0198 28.5515C21.8401 29.7618 21.931 30.9968 22.2859 32.1677C22.6409 33.3386 23.251 34.4162 24.0724 35.323C24.8938 36.2298 25.906 36.9432 27.0362 37.4118ZM21.1887 20.749C22.3727 19.5651 23.7783 18.6259 25.3252 17.9851C26.8722 17.3444 28.5302 17.0146 30.2046 17.0146C31.8789 17.0146 33.5369 17.3444 35.0839 17.9851C36.6308 18.6259 38.0364 19.5651 39.2204 20.749C40.4043 21.933 41.3435 23.3386 41.9843 24.8855C42.625 26.4325 42.9548 28.0905 42.9548 29.7649C42.9548 31.4392 42.625 33.0972 41.9843 34.6442C41.3435 36.1911 40.4043 37.5967 39.2204 38.7807C36.8292 41.1718 33.5861 42.5151 30.2046 42.5151C26.823 42.5151 23.5799 41.1718 21.1887 38.7807C18.7976 36.3895 17.4543 33.1464 17.4543 29.7649C17.4543 26.3833 18.7976 23.1402 21.1887 20.749ZM45.7826 18.9134C46.076 18.6366 46.3109 18.3038 46.4734 17.9347C46.6358 17.5655 46.7226 17.1675 46.7285 16.7642C46.7343 16.3609 46.6592 15.9605 46.5076 15.5867C46.356 15.213 46.1309 14.8735 45.8457 14.5883C45.5605 14.3031 45.221 14.078 44.8472 13.9263C44.4735 13.7747 44.0731 13.6996 43.6698 13.7055C43.2665 13.7114 42.8685 13.7981 42.4993 13.9606C42.1301 14.123 41.7973 14.3579 41.5205 14.6513C40.9823 15.2219 40.6876 15.9798 40.699 16.7642C40.7105 17.5485 41.0271 18.2975 41.5818 18.8522C42.1364 19.4068 42.8855 19.7235 43.6698 19.7349C44.4541 19.7464 45.212 19.4517 45.7826 18.9134Z" fill="#B6B6B6"/>
</g>
</g>
</svg>
