<svg width="60" height="60" viewBox="0 0 60 60" fill="none" xmlns="http://www.w3.org/2000/svg">
<g id="youtube-ic">
<path id="Vector" d="M53.9042 17.8671C53.6217 16.8188 53.0695 15.8628 52.3027 15.0942C51.5358 14.3256 50.5811 13.7713 49.5334 13.4864C45.6488 12.4197 30.1079 12.4024 30.1079 12.4024C30.1079 12.4024 14.5695 12.385 10.6825 13.4045C9.63547 13.7026 8.68266 14.2647 7.91553 15.0371C7.14839 15.8094 6.59268 16.766 6.30174 17.815C5.27726 21.6996 5.26734 29.7566 5.26734 29.7566C5.26734 29.7566 5.25742 37.8532 6.27446 41.6981C6.84499 43.824 8.51939 45.5033 10.6477 46.0763C14.572 47.143 30.0707 47.1604 30.0707 47.1604C30.0707 47.1604 45.6116 47.1777 49.4962 46.1607C50.5442 45.8763 51.4999 45.3232 52.2686 44.5562C53.0374 43.7892 53.5926 42.8348 53.8794 41.7874C54.9064 37.9053 54.9138 29.8508 54.9138 29.8508C54.9138 29.8508 54.9634 21.7517 53.9042 17.8671ZM25.1368 37.2206L25.1492 22.3371L38.0657 29.7913L25.1368 37.2206Z" fill="#B6B6B6"/>
</g>
</svg>
